<?xml version="1.0" encoding="UTF-8"?>
<svg id="ref" xmlns="http://www.w3.org/2000/svg" viewBox="0 0 360 360">
  <defs>
    <style>
      .cls-1 {
        fill: #e76324;
      }

      .cls-2 {
        fill: #144a72;
      }
    </style>
  </defs>
  <path class="cls-2" d="M123.91,160.87l-23.88,51.46h5.44l7.57-16.71,1.97-4.26,11.11-24.35,2.99-6.15h-5.2Z"/>
  <path class="cls-1" d="M130.12,135.45h-8.79l-40.36,86.98h9.19l12.79-28.24,3.33-7.19,18.78-41.16h.8l18.78,41.16,3.2,7.19,12.89,28.24h9.72l-40.32-86.98Z"/>
  <path class="cls-1" d="M261.03,135.45v56.07c0,21.04-16.25,33.03-38.09,33.03s-37.82-11.99-37.82-33.03v-56.07h8.92v56.07c0,16.11,12.52,25.04,28.9,25.04s29.17-8.92,29.17-25.04v-56.07h8.92Z"/>
  <path class="cls-2" d="M220.73,211.26c-2-.07-3.9-.3-5.69-.67-9.42-2.16-15.92-8.86-15.92-19.18v-26.74l5.36,2.73v24.01c0,6.13,3,10.52,7.73,12.92,1.83.93,3.93,1.57,6.19,1.9l2.33,5.03Z"/>
</svg>