<?xml version="1.0" encoding="UTF-8" standalone="no"?>
<svg
   id="Discord-Logo"
   viewBox="0 0 31.660992 24"
   version="1.1"
   sodipodi:docname="Discord-Symbol-Blurple.svg"
   inkscape:version="1.4 (e7c3feb100, 2024-10-09)"
   width="31.660992"
   height="24"
   xmlns:inkscape="http://www.inkscape.org/namespaces/inkscape"
   xmlns:sodipodi="http://sodipodi.sourceforge.net/DTD/sodipodi-0.dtd"
   xmlns="http://www.w3.org/2000/svg"
   xmlns:svg="http://www.w3.org/2000/svg">
  <sodipodi:namedview
     id="namedview1"
     pagecolor="#ffffff"
     bordercolor="#000000"
     borderopacity="0.25"
     inkscape:showpageshadow="false"
     inkscape:pageopacity="0.0"
     inkscape:pagecheckerboard="0"
     inkscape:deskcolor="#d1d1d1"
     inkscape:zoom="6.6145833"
     inkscape:cx="43.766929"
     inkscape:cy="27.892913"
     inkscape:window-width="1463"
     inkscape:window-height="886"
     inkscape:window-x="0"
     inkscape:window-y="0"
     inkscape:window-maximized="1"
     inkscape:current-layer="Discord-Logo"
     borderlayer="false"
     showborder="false"
     inkscape:antialias-rendering="false" />
  <defs
     id="defs1">
    <style
       id="style1">.cls-1{fill:#5865f2;}</style>
  </defs>
  <path
     id="Discord-Symbol-Blurple"
     class="cls-1"
     d="m 20.287502,0 c -0.3094,0.549325 -0.587225,1.1176 -0.839775,1.6985 -2.399375,-0.3599 -4.84295,-0.3599 -7.248625,0 C 11.952852,1.1176 11.668702,0.549325 11.359327,0 9.1051771,0.385175 6.9078521,1.060775 4.8242021,2.0142 c -4.12945,6.1184 -5.24705,12.078925 -4.6914,17.957375 2.4183,1.7869 5.127075,3.15075 8.012625,4.0221 0.65035,-0.87135 1.22495,-1.799525 1.71745,-2.765575 -0.9345,-0.347275 -1.837425,-0.78295 -2.70245,-1.288075 0.2273,-0.164175 0.4483,-0.33465 0.662975,-0.498825 5.0702499,2.38675 10.9423999,2.38675 16.0189499,0 0.214675,0.1768 0.435675,0.347275 0.662975,0.498825 -0.865025,0.511425 -1.76795,0.9408 -2.70875,1.2944 0.4925,0.96605 1.067075,1.894225 1.71745,2.765575 2.885475,-0.87135 5.594225,-2.2289 8.012725,-4.015775 0.6565,-6.819275 -1.124,-12.7293 -4.70425,-17.9637 -2.077225,-0.953425 -4.27455,-1.62905 -6.5287,-2.0079 z m -9.71745,16.3536 c -1.5595749,0 -2.8539749,-1.414375 -2.8539749,-3.163375 0,-1.749 1.243875,-3.1697 2.8476749,-3.1697 1.6038,0 2.879225,1.427 2.853975,3.1697 -0.02525,1.7427 -1.2565,3.163375 -2.847675,3.163375 z m 10.51935,0 c -1.565925,0 -2.847675,-1.414375 -2.847675,-3.163375 0,-1.749 1.243875,-3.1697 2.847675,-3.1697 1.6038,0 2.872925,1.427 2.84765,3.1697 -0.02525,1.7427 -1.2565,3.163375 -2.84765,3.163375 z"
     style="stroke-width:0.25" />
</svg>
