<?xml version="1.0" encoding="UTF-8"?>
<svg id="ref" xmlns="http://www.w3.org/2000/svg" viewBox="0 0 360 360">
  <defs>
    <style>
      .cls-1 {
        fill: #e76324;
      }

      .cls-2 {
        fill: #144a72;
      }
    </style>
  </defs>
  <g>
    <path class="cls-2" d="M129.91,132.02l-23.88,51.46h5.44l7.57-16.71,1.97-4.26,11.11-24.35,2.99-6.15h-5.2Z"/>
    <path class="cls-1" d="M136.12,106.6h-8.79l-40.36,86.98h9.19l12.79-28.24,3.33-7.19,18.78-41.16h.8l18.78,41.16,3.2,7.19,12.89,28.24h9.72l-40.32-86.98Z"/>
    <path class="cls-1" d="M267.03,106.6v56.07c0,21.04-16.25,33.03-38.09,33.03s-37.82-11.99-37.82-33.03v-56.07h8.92v56.07c0,16.11,12.52,25.04,28.9,25.04s29.17-8.92,29.17-25.04v-56.07h8.92Z"/>
    <path class="cls-2" d="M226.73,182.41c-2-.07-3.9-.3-5.69-.67-9.42-2.16-15.92-8.86-15.92-19.18v-26.74l5.36,2.73v24.01c0,6.13,3,10.52,7.73,12.92,1.83.93,3.93,1.57,6.19,1.9l2.33,5.03Z"/>
  </g>
  <g>
    <path class="cls-2" d="M122.53,250.44v-31.97h-.3l-15.03,25.15h-1.08l-15.03-25.15h-.3v31.97h-3.83v-39.1h4.43l15.39,25.75h.12l15.33-25.75h4.31v39.1h-4.01Z"/>
    <path class="cls-2" d="M163.47,231.52h-16.47v15.33h28.5v3.59h-32.51v-39.1h31.19v3.59h-27.18v13.05h16.47v3.53Z"/>
    <path class="cls-2" d="M215.07,218.89c-2.4-2.21-7.49-5.03-14.73-5.03-5.27,0-11.26,1.98-11.26,7.54s7,5.87,13.65,6.23c6.77.42,17.72,1.08,17.72,11.2,0,8.8-8.2,12.57-17.6,12.57s-15.81-4.13-19.94-7.96l2.45-2.75c3.41,3.17,8.86,7.24,17.54,7.24,7.3,0,13.53-2.69,13.53-8.62,0-6.59-7.13-7.36-13.71-7.78-8.26-.48-17.66-1.08-17.66-9.82s8.56-11.26,15.45-11.26c7.9,0,14.07,3.23,17,5.69l-2.46,2.75Z"/>
    <path class="cls-2" d="M232.9,250.44v-39.1h4.01v16.17h26.11v-16.17h4.01v39.1h-4.01v-19.4h-26.11v19.4h-4.01Z"/>
  </g>
</svg>