<?xml version="1.0" encoding="UTF-8" standalone="no"?>
<svg
   id="ref"
   viewBox="0 0 59.691717 47.999998"
   version="1.1"
   sodipodi:docname="SVG_auMesh.svg"
   width="59.691711"
   height="48"
   inkscape:version="1.4 (e7c3feb100, 2024-10-09)"
   xmlns:inkscape="http://www.inkscape.org/namespaces/inkscape"
   xmlns:sodipodi="http://sodipodi.sourceforge.net/DTD/sodipodi-0.dtd"
   xmlns="http://www.w3.org/2000/svg"
   xmlns:svg="http://www.w3.org/2000/svg">
  <sodipodi:namedview
     id="namedview8"
     pagecolor="#ffffff"
     bordercolor="#000000"
     borderopacity="0.25"
     inkscape:showpageshadow="2"
     inkscape:pageopacity="0.0"
     inkscape:pagecheckerboard="0"
     inkscape:deskcolor="#d1d1d1"
     inkscape:zoom="1.7638889"
     inkscape:cx="65.480315"
     inkscape:cy="111.9685"
     inkscape:window-width="1463"
     inkscape:window-height="886"
     inkscape:window-x="0"
     inkscape:window-y="0"
     inkscape:window-maximized="1"
     inkscape:current-layer="ref" />
  <defs
     id="defs1">
    <style
       id="style1">
      .cls-1 {
        fill: #e76324;
      }

      .cls-2 {
        fill: #144a72;
      }
    </style>
  </defs>
  <g
     id="g4"
     transform="matrix(0.33149171,0,0,0.33149171,-28.826519,-35.337016)">
    <path
       class="cls-2"
       d="m 129.91,132.02 -23.88,51.46 h 5.44 l 7.57,-16.71 1.97,-4.26 11.11,-24.35 2.99,-6.15 h -5.2 z"
       id="path1" />
    <path
       class="cls-1"
       d="m 136.12,106.6 h -8.79 l -40.36,86.98 h 9.19 l 12.79,-28.24 3.33,-7.19 18.78,-41.16 h 0.8 l 18.78,41.16 3.2,7.19 12.89,28.24 h 9.72 L 136.13,106.6 Z"
       id="path2" />
    <path
       class="cls-1"
       d="m 267.03,106.6 v 56.07 c 0,21.04 -16.25,33.03 -38.09,33.03 -21.84,0 -37.82,-11.99 -37.82,-33.03 V 106.6 h 8.92 v 56.07 c 0,16.11 12.52,25.04 28.9,25.04 16.38,0 29.17,-8.92 29.17,-25.04 V 106.6 Z"
       id="path3" />
    <path
       class="cls-2"
       d="m 226.73,182.41 c -2,-0.07 -3.9,-0.3 -5.69,-0.67 -9.42,-2.16 -15.92,-8.86 -15.92,-19.18 v -26.74 l 5.36,2.73 v 24.01 c 0,6.13 3,10.52 7.73,12.92 1.83,0.93 3.93,1.57 6.19,1.9 z"
       id="path4" />
  </g>
  <g
     id="g8"
     transform="matrix(0.33149171,0,0,0.33149171,-28.826519,-35.337016)">
    <path
       class="cls-2"
       d="m 122.53,250.44 v -31.97 h -0.3 l -15.03,25.15 h -1.08 L 91.09,218.47 h -0.3 v 31.97 h -3.83 v -39.1 h 4.43 l 15.39,25.75 h 0.12 l 15.33,-25.75 h 4.31 v 39.1 z"
       id="path5" />
    <path
       class="cls-2"
       d="M 163.47,231.52 H 147 v 15.33 h 28.5 v 3.59 h -32.51 v -39.1 h 31.19 v 3.59 H 147 v 13.05 h 16.47 v 3.53 z"
       id="path6" />
    <path
       class="cls-2"
       d="m 215.07,218.89 c -2.4,-2.21 -7.49,-5.03 -14.73,-5.03 -5.27,0 -11.26,1.98 -11.26,7.54 0,5.56 7,5.87 13.65,6.23 6.77,0.42 17.72,1.08 17.72,11.2 0,8.8 -8.2,12.57 -17.6,12.57 -9.4,0 -15.81,-4.13 -19.94,-7.96 l 2.45,-2.75 c 3.41,3.17 8.86,7.24 17.54,7.24 7.3,0 13.53,-2.69 13.53,-8.62 0,-6.59 -7.13,-7.36 -13.71,-7.78 -8.26,-0.48 -17.66,-1.08 -17.66,-9.82 0,-8.74 8.56,-11.26 15.45,-11.26 7.9,0 14.07,3.23 17,5.69 l -2.46,2.75 z"
       id="path7" />
    <path
       class="cls-2"
       d="m 232.9,250.44 v -39.1 h 4.01 v 16.17 h 26.11 v -16.17 h 4.01 v 39.1 h -4.01 v -19.4 h -26.11 v 19.4 z"
       id="path8" />
  </g>
</svg>
